<svg version="1.1" id="Layer_1" xmlns="http://www.w3.org/2000/svg" xmlns:xlink="http://www.w3.org/1999/xlink" x="0px" y="0px"
	 width="100%" viewBox="0 0 1320 301" enable-background="new 0 0 1320 301" xml:space="preserve">
<path fill="#000000" opacity="1.000000" stroke="none" 
	d="
M977.000000,302.000000 
	C651.333374,302.000000 326.166779,302.000000 1.000131,302.000000 
	C1.000087,201.666748 1.000087,101.333488 1.000044,1.000171 
	C440.999847,1.000114 880.999695,1.000114 1320.999634,1.000057 
	C1320.999756,101.333160 1320.999756,201.666321 1320.999878,301.999756 
	C1206.500000,302.000000 1092.000000,302.000000 977.000000,302.000000 
M1184.990967,179.519699 
	C1187.842285,175.341827 1190.986938,171.331238 1193.484741,166.951752 
	C1198.945679,157.377029 1202.554077,147.504639 1201.168823,135.907303 
	C1198.811768,116.176109 1177.300415,103.430420 1158.626221,111.289825 
	C1153.577759,113.414528 1149.197021,117.125763 1144.426758,120.161659 
	C1140.941895,117.540802 1137.188965,113.368248 1132.512329,111.462845 
	C1120.134155,106.419731 1108.158936,108.559410 1098.269897,117.452438 
	C1088.863281,125.911499 1086.929443,137.323593 1089.726929,149.191132 
	C1095.323975,172.934708 1110.580566,190.194763 1130.365601,202.740646 
	C1148.012939,213.930969 1141.567749,213.957687 1159.397705,202.771576 
	C1168.810791,196.865891 1176.191284,187.720184 1184.990967,179.519699 
M75.304276,168.027451 
	C84.692131,173.150238 90.956032,180.955826 95.302505,190.619217 
	C97.870644,196.328903 102.743805,199.227753 109.005066,198.932938 
	C114.980080,198.651611 119.986671,196.249496 122.808037,190.555527 
	C124.306114,187.532166 125.669792,184.442047 127.176308,181.423065 
	C129.519928,176.726547 133.121902,176.474838 135.965073,180.865036 
	C138.410782,184.641510 140.607834,188.579239 143.061737,192.350098 
	C145.449371,196.019089 149.650833,196.285522 152.539902,192.847778 
	C153.965652,191.151260 154.930313,189.045425 155.980911,187.059875 
	C158.431808,182.427780 161.661972,178.568054 167.417572,180.173126 
	C170.141861,180.932861 172.569870,183.302399 174.752319,185.347824 
	C179.879074,190.152695 182.750046,190.221481 187.425278,185.048843 
	C189.284210,182.992142 191.350891,180.996490 192.677261,178.613617 
	C194.907516,174.606827 197.254181,175.254852 200.160568,177.619049 
	C204.484146,181.136047 206.714966,180.699402 210.011612,175.935852 
	C213.588043,170.768021 217.958435,166.938446 224.561844,165.919861 
	C231.316849,164.877914 237.978348,163.229843 244.680786,161.847092 
	C241.203598,160.435974 237.776093,159.592438 234.303635,159.023102 
	C224.242081,157.373459 214.460617,155.431061 208.955582,145.244675 
	C207.221298,142.035553 204.197906,142.548035 201.493561,144.199127 
	C195.589127,147.803970 195.351654,147.812241 190.926315,142.395233 
	C189.903107,141.142715 189.041489,139.758026 188.016357,138.507263 
	C183.242584,132.682785 179.600418,132.230042 174.688721,137.999527 
	C169.170135,144.481873 160.591293,145.110611 156.563187,136.138260 
	C155.975723,134.829712 154.708786,133.806351 154.213882,132.480225 
	C153.151550,129.633682 151.525146,128.032974 148.268524,127.934891 
	C144.869827,127.832527 143.366638,129.766022 141.922623,132.356766 
	C140.196838,135.453064 138.177338,138.388840 136.227798,141.356522 
	C132.910568,146.406204 130.038925,146.301559 127.017998,140.953857 
	C125.278694,137.874908 123.751770,134.676697 122.092392,131.551727 
	C119.513283,126.694740 115.520134,124.293999 109.960655,123.943008 
	C101.842247,123.430473 97.264343,127.844582 94.100990,134.531464 
	C88.606483,146.146103 80.331474,154.636169 67.497276,157.755417 
	C62.151573,159.054626 56.685535,159.858749 51.274220,160.888000 
	C52.916039,162.280914 54.472080,162.601166 56.005474,163.006958 
	C62.182274,164.641571 68.352074,166.302628 75.304276,168.027451 
M103.016144,68.478874 
	C141.311554,51.910847 178.196960,55.064697 211.209564,80.238396 
	C244.647751,105.736618 257.234039,140.969391 251.801392,182.570435 
	C262.770966,146.101639 256.418060,112.409576 232.308594,83.168022 
	C205.247482,50.346519 164.967194,37.488976 123.622421,48.374489 
	C79.818840,59.907372 52.159359,95.051682 46.748470,131.860703 
	C57.074440,103.574692 74.772118,81.847870 103.016144,68.478874 
M62.999855,149.359924 
	C63.333908,147.119766 63.495243,144.837585 64.028343,142.645844 
	C70.342766,116.685402 85.071953,97.305595 108.961243,84.976143 
	C125.603287,76.387062 143.059479,74.181671 161.476013,76.919006 
	C177.764053,79.339981 191.994980,85.985123 204.195709,96.791267 
	C220.462494,111.198723 229.774475,129.475647 233.084320,150.910919 
	C233.257538,152.032578 234.443771,153.474304 235.498886,153.878754 
	C237.380981,154.600220 239.523346,154.642670 241.595749,154.975311 
	C240.222992,116.133904 210.241058,73.098160 157.152405,67.203011 
	C109.357758,61.895733 57.503536,96.177872 53.402950,155.782944 
	C56.256996,152.423187 62.194199,156.752930 62.999855,149.359924 
M156.410522,255.000000 
	C168.032913,255.194077 178.742874,251.386307 188.883408,246.450027 
	C210.602692,235.877380 226.227295,219.124420 235.514511,196.837067 
	C239.275482,187.811539 241.783875,178.281357 242.006119,167.807007 
	C238.740952,168.382263 235.956421,168.872833 233.273697,169.345474 
	C231.158295,189.379242 222.876999,206.460281 209.449539,220.863190 
	C200.775146,230.167740 190.032211,236.880005 178.072769,241.459885 
	C162.602051,247.384384 146.563553,248.854126 130.476578,245.583740 
	C118.838211,243.217758 107.994003,238.481750 98.222221,231.134598 
	C80.250671,217.622223 68.119789,200.636978 63.984573,178.308426 
	C62.084507,168.048798 61.403629,167.421021 53.633896,168.400101 
	C53.756706,169.656357 53.924564,170.898071 53.987343,172.145096 
	C54.054272,173.474686 53.801773,174.854782 54.066414,176.134750 
	C57.191280,191.248520 62.647655,205.318420 71.937485,217.858902 
	C83.082474,232.903671 97.568733,243.119919 114.822830,250.138367 
	C128.059662,255.522736 141.703705,255.039764 156.410522,255.000000 
M553.000000,164.499969 
	C556.076538,161.354477 559.153076,158.208984 563.032776,154.242355 
	C563.032776,168.879822 563.032776,182.267441 563.032776,195.794281 
	C565.826538,195.794281 568.229858,195.794281 570.633484,195.794281 
	C570.633484,176.098160 570.633484,156.609848 570.633484,138.195236 
	C555.543274,152.169830 540.084656,166.485535 524.916626,180.532211 
	C524.916626,166.801361 524.916626,152.117218 524.916626,138.510223 
	C509.640228,152.625656 494.012604,167.065628 479.009888,180.928177 
	C479.009888,168.815887 479.009888,155.100174 479.009888,141.195801 
	C476.548248,141.195801 474.479706,141.195801 472.205231,141.195801 
	C472.205231,160.740952 472.205231,180.122314 472.205231,200.585373 
	C487.335297,185.006149 501.852875,170.057602 517.406616,154.042114 
	C517.406616,170.387009 517.406616,185.180298 517.406616,196.416275 
	C528.057434,186.881409 540.278687,175.940689 553.000000,164.499969 
M316.500000,188.000000 
	C327.805145,176.696381 339.110291,165.392776 351.301331,153.203354 
	C351.301331,168.408524 351.301331,182.169632 351.301331,195.663681 
	C353.723572,195.663681 355.794708,195.663681 357.630432,195.663681 
	C357.630432,175.654160 357.630432,155.982361 357.630432,137.898285 
	C341.913849,152.319870 325.566132,167.320633 309.860565,181.732117 
	C309.860565,157.714447 309.860565,131.886047 309.860565,106.174767 
	C306.999298,106.174767 304.709045,106.174767 302.330078,106.174767 
	C302.330078,137.848175 302.330078,169.345795 302.330078,202.464050 
	C307.518951,197.163498 311.759460,192.831726 316.500000,188.000000 
M852.493347,150.004471 
	C855.338501,147.308060 858.183655,144.611664 862.140991,140.861176 
	C843.387390,140.861176 826.224304,140.861176 808.687988,140.861176 
	C808.687988,128.872849 808.687988,117.460403 808.687988,106.168503 
	C806.340027,106.168503 804.382874,106.168503 802.390686,106.168503 
	C802.390686,137.787628 802.390686,169.236740 802.390686,201.600403 
	C819.357178,184.125015 835.675903,167.316803 852.493347,150.004471 
M710.006348,140.020828 
	C706.769592,141.338013 703.351501,142.331345 700.325684,144.025284 
	C681.666626,154.471298 682.107422,176.895569 695.533325,189.582169 
	C708.480164,201.816147 728.666077,199.770386 738.987183,184.419006 
	C747.223450,172.168640 745.112854,155.213791 732.873169,145.958435 
	C726.295532,140.984558 718.932617,139.386749 710.006348,140.020828 
M948.001099,187.498306 
	C945.026428,192.512741 942.051697,197.527176 939.076965,202.541626 
	C939.332764,202.833405 939.588562,203.125183 939.844360,203.416962 
	C957.260437,194.063126 974.676514,184.709290 991.917175,175.449646 
	C994.908569,180.731003 997.559509,185.134216 999.940247,189.678986 
	C1003.618591,196.700760 1003.540222,196.741806 1011.542358,195.442047 
	C1000.679260,175.933914 989.816223,156.425781 978.653381,136.379257 
	C976.053833,140.702866 973.971252,144.132812 971.921326,147.582214 
	C964.121216,160.707382 956.331787,173.838837 948.001099,187.498306 
M423.500061,180.999695 
	C427.165436,174.762070 430.830811,168.524445 435.256165,160.993530 
	C435.256165,173.648560 435.256165,184.742554 435.256165,195.706604 
	C437.990906,195.706604 440.397339,195.706604 442.705353,195.706604 
	C442.705353,175.750702 442.705353,156.089432 442.705353,136.428177 
	C442.428223,136.319839 442.151093,136.211517 441.873932,136.103195 
	C431.725128,152.985901 421.576324,169.868607 411.444366,186.723267 
	C403.136780,171.600464 394.794983,156.415375 386.572540,141.447586 
	C383.684113,141.447586 380.859802,141.447586 377.760193,141.447586 
	C378.862915,143.284241 379.720673,144.630310 380.498596,146.021027 
	C390.217682,163.396255 399.959106,180.759232 409.599243,198.178192 
	C411.048615,200.797089 411.860657,200.970200 413.369781,198.238937 
	C416.471619,192.625290 419.800323,187.136978 423.500061,180.999695 
M906.008606,157.487839 
	C911.685547,154.140549 917.071838,150.063339 923.122437,147.654587 
	C928.979675,145.322815 928.157166,141.532059 927.714478,136.419891 
	C908.836548,147.217529 890.466370,157.724731 871.257507,168.711639 
	C890.305542,179.817108 908.813171,190.607544 927.916748,201.745392 
	C927.771179,196.924088 929.190308,193.400024 923.815857,190.724182 
	C912.996826,185.337494 902.826599,178.647614 891.405212,171.915817 
	C904.239380,171.915817 915.963623,171.915817 927.783691,171.915817 
	C927.783691,169.483322 927.783691,167.413818 927.783691,164.959503 
	C916.547852,164.959503 905.520081,164.959503 893.104797,164.959503 
	C898.021912,162.165176 901.718689,160.064377 906.008606,157.487839 
M650.000000,157.533691 
	C650.000000,154.426605 650.000000,151.319519 650.000000,147.850983 
	C657.966553,147.850983 665.387329,147.850983 672.727600,147.850983 
	C672.727600,145.382782 672.727600,143.311005 672.727600,140.851166 
	C665.049927,140.851166 657.639526,140.851166 649.849243,140.851166 
	C649.849243,131.702148 649.849243,122.950127 649.849243,114.275818 
	C647.043213,114.275818 644.636841,114.275818 641.843994,114.275818 
	C641.843994,123.290497 641.843994,132.036469 641.843994,141.155869 
	C636.360046,141.155869 631.271240,141.155869 626.276001,141.155869 
	C626.276001,143.624146 626.276001,145.696289 626.276001,148.156219 
	C631.624756,148.156219 636.708496,148.156219 642.156616,148.156219 
	C642.156616,164.304337 642.156616,180.052200 642.156616,195.721863 
	C644.960999,195.721863 647.367554,195.721863 650.000000,195.721863 
	C650.000000,183.137787 650.000000,170.830429 650.000000,157.533691 
M1047.000000,179.498169 
	C1047.000000,169.068680 1047.000000,158.639206 1047.000000,147.831360 
	C1054.988525,147.831360 1062.410278,147.831360 1069.716797,147.831360 
	C1069.716797,145.367477 1069.716797,143.297516 1069.716797,140.832306 
	C1062.028442,140.832306 1054.617432,140.832306 1046.830688,140.832306 
	C1046.830688,131.681808 1046.830688,122.929802 1046.830688,114.285736 
	C1044.022705,114.285736 1041.617920,114.285736 1038.826416,114.285736 
	C1038.826416,123.310562 1038.826416,132.055389 1038.826416,141.172913 
	C1033.341431,141.172913 1028.254272,141.172913 1023.285400,141.172913 
	C1023.285400,143.646210 1023.285400,145.716919 1023.285400,148.172638 
	C1028.643677,148.172638 1033.725830,148.172638 1039.172363,148.172638 
	C1039.172363,164.321457 1039.172363,180.069260 1039.172363,195.713547 
	C1041.976196,195.713547 1044.383179,195.713547 1047.000000,195.713547 
	C1047.000000,190.451553 1047.000000,185.474121 1047.000000,179.498169 
M1177.005371,103.365395 
	C1177.967163,104.252190 1178.791626,105.638733 1179.912354,105.946571 
	C1188.723999,108.366898 1194.998657,114.107117 1199.655029,121.529503 
	C1201.485352,124.446960 1203.640259,124.646500 1205.743164,123.550339 
	C1208.269287,122.233681 1207.928345,119.228035 1206.600830,117.289688 
	C1200.673706,108.635780 1194.099976,100.984276 1182.819458,98.722206 
	C1178.464722,97.848976 1177.536133,99.120575 1177.005371,103.365395 
M1110.918823,98.411774 
	C1101.149780,98.429947 1085.415649,109.786011 1083.250000,118.729424 
	C1082.880981,120.252724 1084.180542,122.180099 1084.709351,123.920792 
	C1086.721802,123.171524 1089.794800,123.000778 1090.571289,121.577316 
	C1094.976562,113.501129 1101.687500,108.728477 1110.226562,105.981712 
	C1114.850464,104.494331 1115.116943,102.608353 1110.918823,98.411774 
M1187.011963,92.453491 
	C1187.139282,92.919365 1187.125488,93.663666 1187.414429,93.810074 
	C1193.178955,96.729675 1199.139038,99.279099 1203.369995,104.589249 
	C1203.787964,105.113792 1206.995850,104.334869 1207.885742,103.289810 
	C1208.681519,102.355209 1208.667847,99.858757 1207.964600,98.671143 
	C1204.885498,93.470634 1200.083374,90.542267 1194.344604,88.615608 
	C1190.562256,87.345787 1188.387817,87.999916 1187.011963,92.453491 
M1099.317505,95.943954 
	C1101.520752,94.803383 1104.214233,93.696915 1102.727905,90.554146 
	C1101.545166,88.053268 1099.532959,87.921822 1096.558716,88.561043 
	C1090.603149,89.840973 1086.626709,93.354515 1082.810669,97.609032 
	C1080.852295,99.792480 1079.753174,102.048851 1082.521606,103.717613 
	C1083.855103,104.521370 1086.647339,103.966415 1088.237427,103.068100 
	C1091.851196,101.026459 1095.129883,98.391731 1099.317505,95.943954 
z"/>
<path fill="#DD2E44" opacity="1.000000" stroke="none" 
	d="
M1184.740234,179.778534 
	C1176.191284,187.720184 1168.810791,196.865891 1159.397705,202.771576 
	C1141.567749,213.957687 1148.012939,213.930969 1130.365601,202.740646 
	C1110.580566,190.194763 1095.323975,172.934708 1089.726929,149.191132 
	C1086.929443,137.323593 1088.863281,125.911499 1098.269897,117.452438 
	C1108.158936,108.559410 1120.134155,106.419731 1132.512329,111.462845 
	C1137.188965,113.368248 1140.941895,117.540802 1144.426758,120.161659 
	C1149.197021,117.125763 1153.577759,113.414528 1158.626221,111.289825 
	C1177.300415,103.430420 1198.811768,116.176109 1201.168823,135.907303 
	C1202.554077,147.504639 1198.945679,157.377029 1193.484741,166.951752 
	C1190.986938,171.331238 1187.842285,175.341827 1184.740234,179.778534 
z"/>
<path fill="#FFFFFF" opacity="1.000000" stroke="none" 
	d="
M74.914368,167.990692 
	C68.352074,166.302628 62.182274,164.641571 56.005474,163.006958 
	C54.472080,162.601166 52.916039,162.280914 51.274220,160.888000 
	C56.685535,159.858749 62.151573,159.054626 67.497276,157.755417 
	C80.331474,154.636169 88.606483,146.146103 94.100990,134.531464 
	C97.264343,127.844582 101.842247,123.430473 109.960655,123.943008 
	C115.520134,124.293999 119.513283,126.694740 122.092392,131.551727 
	C123.751770,134.676697 125.278694,137.874908 127.017998,140.953857 
	C130.038925,146.301559 132.910568,146.406204 136.227798,141.356522 
	C138.177338,138.388840 140.196838,135.453064 141.922623,132.356766 
	C143.366638,129.766022 144.869827,127.832527 148.268524,127.934891 
	C151.525146,128.032974 153.151550,129.633682 154.213882,132.480225 
	C154.708786,133.806351 155.975723,134.829712 156.563187,136.138260 
	C160.591293,145.110611 169.170135,144.481873 174.688721,137.999527 
	C179.600418,132.230042 183.242584,132.682785 188.016357,138.507263 
	C189.041489,139.758026 189.903107,141.142715 190.926315,142.395233 
	C195.351654,147.812241 195.589127,147.803970 201.493561,144.199127 
	C204.197906,142.548035 207.221298,142.035553 208.955582,145.244675 
	C214.460617,155.431061 224.242081,157.373459 234.303635,159.023102 
	C237.776093,159.592438 241.203598,160.435974 244.680786,161.847092 
	C237.978348,163.229843 231.316849,164.877914 224.561844,165.919861 
	C217.958435,166.938446 213.588043,170.768021 210.011612,175.935852 
	C206.714966,180.699402 204.484146,181.136047 200.160568,177.619049 
	C197.254181,175.254852 194.907516,174.606827 192.677261,178.613617 
	C191.350891,180.996490 189.284210,182.992142 187.425278,185.048843 
	C182.750046,190.221481 179.879074,190.152695 174.752319,185.347824 
	C172.569870,183.302399 170.141861,180.932861 167.417572,180.173126 
	C161.661972,178.568054 158.431808,182.427780 155.980911,187.059875 
	C154.930313,189.045425 153.965652,191.151260 152.539902,192.847778 
	C149.650833,196.285522 145.449371,196.019089 143.061737,192.350098 
	C140.607834,188.579239 138.410782,184.641510 135.965073,180.865036 
	C133.121902,176.474838 129.519928,176.726547 127.176308,181.423065 
	C125.669792,184.442047 124.306114,187.532166 122.808037,190.555527 
	C119.986671,196.249496 114.980080,198.651611 109.005066,198.932938 
	C102.743805,199.227753 97.870644,196.328903 95.302505,190.619217 
	C90.956032,180.955826 84.692131,173.150238 74.914368,167.990692 
z"/>
<path fill="#FFFFFF" opacity="1.000000" stroke="none" 
	d="
M102.710831,68.720261 
	C74.772118,81.847870 57.074440,103.574692 46.748470,131.860703 
	C52.159359,95.051682 79.818840,59.907372 123.622421,48.374489 
	C164.967194,37.488976 205.247482,50.346519 232.308594,83.168022 
	C256.418060,112.409576 262.770966,146.101639 251.801392,182.570435 
	C257.234039,140.969391 244.647751,105.736618 211.209564,80.238396 
	C178.196960,55.064697 141.311554,51.910847 102.710831,68.720261 
z"/>
<path fill="#FFFFFF" opacity="1.000000" stroke="none" 
	d="
M62.998871,149.801407 
	C62.194199,156.752930 56.256996,152.423187 53.402950,155.782944 
	C57.503536,96.177872 109.357758,61.895733 157.152405,67.203011 
	C210.241058,73.098160 240.222992,116.133904 241.595749,154.975311 
	C239.523346,154.642670 237.380981,154.600220 235.498886,153.878754 
	C234.443771,153.474304 233.257538,152.032578 233.084320,150.910919 
	C229.774475,129.475647 220.462494,111.198723 204.195709,96.791267 
	C191.994980,85.985123 177.764053,79.339981 161.476013,76.919006 
	C143.059479,74.181671 125.603287,76.387062 108.961243,84.976143 
	C85.071953,97.305595 70.342766,116.685402 64.028343,142.645844 
	C63.495243,144.837585 63.333908,147.119766 62.998871,149.801407 
z"/>
<path fill="#FFFFFF" opacity="1.000000" stroke="none" 
	d="
M155.921661,255.000000 
	C141.703705,255.039764 128.059662,255.522736 114.822830,250.138367 
	C97.568733,243.119919 83.082474,232.903671 71.937485,217.858902 
	C62.647655,205.318420 57.191280,191.248520 54.066414,176.134750 
	C53.801773,174.854782 54.054272,173.474686 53.987343,172.145096 
	C53.924564,170.898071 53.756706,169.656357 53.633896,168.400101 
	C61.403629,167.421021 62.084507,168.048798 63.984573,178.308426 
	C68.119789,200.636978 80.250671,217.622223 98.222221,231.134598 
	C107.994003,238.481750 118.838211,243.217758 130.476578,245.583740 
	C146.563553,248.854126 162.602051,247.384384 178.072769,241.459885 
	C190.032211,236.880005 200.775146,230.167740 209.449539,220.863190 
	C222.876999,206.460281 231.158295,189.379242 233.273697,169.345474 
	C235.956421,168.872833 238.740952,168.382263 242.006119,167.807007 
	C241.783875,178.281357 239.275482,187.811539 235.514511,196.837067 
	C226.227295,219.124420 210.602692,235.877380 188.883408,246.450027 
	C178.742874,251.386307 168.032913,255.194077 155.921661,255.000000 
z"/>
<path fill="#FFFFFF" opacity="1.000000" stroke="none" 
	d="
M552.750000,164.749969 
	C540.278687,175.940689 528.057434,186.881409 517.406616,196.416275 
	C517.406616,185.180298 517.406616,170.387009 517.406616,154.042114 
	C501.852875,170.057602 487.335297,185.006149 472.205231,200.585373 
	C472.205231,180.122314 472.205231,160.740952 472.205231,141.195801 
	C474.479706,141.195801 476.548248,141.195801 479.009888,141.195801 
	C479.009888,155.100174 479.009888,168.815887 479.009888,180.928177 
	C494.012604,167.065628 509.640228,152.625656 524.916626,138.510223 
	C524.916626,152.117218 524.916626,166.801361 524.916626,180.532211 
	C540.084656,166.485535 555.543274,152.169830 570.633484,138.195236 
	C570.633484,156.609848 570.633484,176.098160 570.633484,195.794281 
	C568.229858,195.794281 565.826538,195.794281 563.032776,195.794281 
	C563.032776,182.267441 563.032776,168.879822 563.032776,154.242355 
	C559.153076,158.208984 556.076538,161.354477 552.750000,164.749969 
z"/>
<path fill="#FFFFFF" opacity="1.000000" stroke="none" 
	d="
M316.250000,188.249985 
	C311.759460,192.831726 307.518951,197.163498 302.330078,202.464050 
	C302.330078,169.345795 302.330078,137.848175 302.330078,106.174767 
	C304.709045,106.174767 306.999298,106.174767 309.860565,106.174767 
	C309.860565,131.886047 309.860565,157.714447 309.860565,181.732117 
	C325.566132,167.320633 341.913849,152.319870 357.630432,137.898285 
	C357.630432,155.982361 357.630432,175.654160 357.630432,195.663681 
	C355.794708,195.663681 353.723572,195.663681 351.301331,195.663681 
	C351.301331,182.169632 351.301331,168.408524 351.301331,153.203354 
	C339.110291,165.392776 327.805145,176.696381 316.250000,188.249985 
z"/>
<path fill="#FFFFFF" opacity="1.000000" stroke="none" 
	d="
M852.244019,150.256531 
	C835.675903,167.316803 819.357178,184.125015 802.390686,201.600403 
	C802.390686,169.236740 802.390686,137.787628 802.390686,106.168503 
	C804.382874,106.168503 806.340027,106.168503 808.687988,106.168503 
	C808.687988,117.460403 808.687988,128.872849 808.687988,140.861176 
	C826.224304,140.861176 843.387390,140.861176 862.140991,140.861176 
	C858.183655,144.611664 855.338501,147.308060 852.244019,150.256531 
M809.000000,157.533646 
	C809.000000,166.231628 809.000000,174.929611 809.000000,184.817307 
	C821.188232,172.081451 832.489868,160.271988 843.940369,148.307007 
	C831.962158,148.307007 820.565979,148.307007 809.000000,148.307007 
	C809.000000,151.256546 809.000000,153.900299 809.000000,157.533646 
z"/>
<path fill="#FFFFFF" opacity="1.000000" stroke="none" 
	d="
M710.455872,140.011108 
	C718.932617,139.386749 726.295532,140.984558 732.873169,145.958435 
	C745.112854,155.213791 747.223450,172.168640 738.987183,184.419006 
	C728.666077,199.770386 708.480164,201.816147 695.533325,189.582169 
	C682.107422,176.895569 681.666626,154.471298 700.325684,144.025284 
	C703.351501,142.331345 706.769592,141.338013 710.455872,140.011108 
M701.007446,183.510590 
	C704.932129,187.849487 710.240295,190.005096 715.664551,189.826553 
	C729.250854,189.379333 740.275574,173.216309 734.050964,160.355667 
	C730.072144,152.134872 723.528503,147.865662 714.248962,147.987854 
	C706.434509,148.090744 698.910400,153.281647 695.708130,160.770004 
	C692.047241,169.331024 695.074463,176.400620 701.007446,183.510590 
z"/>
<path fill="#FFFFFF" opacity="1.000000" stroke="none" 
	d="
M948.269714,187.233124 
	C956.331787,173.838837 964.121216,160.707382 971.921326,147.582214 
	C973.971252,144.132812 976.053833,140.702866 978.653381,136.379257 
	C989.816223,156.425781 1000.679260,175.933914 1011.548767,195.438385 
	C1003.540222,196.741806 1003.618591,196.700760 999.940247,189.678986 
	C997.559509,185.134216 994.908569,180.731003 991.917175,175.449646 
	C974.676514,184.709290 957.260437,194.063126 939.844360,203.416962 
	C939.588562,203.125183 939.332764,202.833405 939.076965,202.541626 
	C942.051697,197.527176 945.026428,192.512741 948.269714,187.233124 
M967.637512,180.033203 
	C974.527649,176.319382 981.417786,172.605560 988.339355,168.874786 
	C984.817810,162.575241 981.647522,156.904083 978.223022,150.778107 
	C971.435120,162.234787 964.808838,173.418686 958.182556,184.602600 
	C958.395630,184.810852 958.608643,185.019119 958.821716,185.227371 
	C961.553894,183.643219 964.286072,182.059067 967.637512,180.033203 
z"/>
<path fill="#FFFFFF" opacity="1.000000" stroke="none" 
	d="
M423.267822,181.298386 
	C419.800323,187.136978 416.471619,192.625290 413.369781,198.238937 
	C411.860657,200.970200 411.048615,200.797089 409.599243,198.178192 
	C399.959106,180.759232 390.217682,163.396255 380.498596,146.021027 
	C379.720673,144.630310 378.862915,143.284241 377.760193,141.447586 
	C380.859802,141.447586 383.684113,141.447586 386.572540,141.447586 
	C394.794983,156.415375 403.136780,171.600464 411.444366,186.723267 
	C421.576324,169.868607 431.725128,152.985901 441.873932,136.103195 
	C442.151093,136.211517 442.428223,136.319839 442.705353,136.428177 
	C442.705353,156.089432 442.705353,175.750702 442.705353,195.706604 
	C440.397339,195.706604 437.990906,195.706604 435.256165,195.706604 
	C435.256165,184.742554 435.256165,173.648560 435.256165,160.993530 
	C430.830811,168.524445 427.165436,174.762070 423.267822,181.298386 
z"/>
<path fill="#FFFFFF" opacity="1.000000" stroke="none" 
	d="
M905.712036,157.725708 
	C901.718689,160.064377 898.021912,162.165176 893.104797,164.959503 
	C905.520081,164.959503 916.547852,164.959503 927.783691,164.959503 
	C927.783691,167.413818 927.783691,169.483322 927.783691,171.915817 
	C915.963623,171.915817 904.239380,171.915817 891.405212,171.915817 
	C902.826599,178.647614 912.996826,185.337494 923.815857,190.724182 
	C929.190308,193.400024 927.771179,196.924088 927.916748,201.745392 
	C908.813171,190.607544 890.305542,179.817108 871.257507,168.711639 
	C890.466370,157.724731 908.836548,147.217529 927.714478,136.419891 
	C928.157166,141.532059 928.979675,145.322815 923.122437,147.654587 
	C917.071838,150.063339 911.685547,154.140549 905.712036,157.725708 
z"/>
<path fill="#FFFFFF" opacity="1.000000" stroke="none" 
	d="
M650.000000,158.028381 
	C650.000000,170.830429 650.000000,183.137787 650.000000,195.721863 
	C647.367554,195.721863 644.960999,195.721863 642.156616,195.721863 
	C642.156616,180.052200 642.156616,164.304337 642.156616,148.156219 
	C636.708496,148.156219 631.624756,148.156219 626.276001,148.156219 
	C626.276001,145.696289 626.276001,143.624146 626.276001,141.155869 
	C631.271240,141.155869 636.360046,141.155869 641.843994,141.155869 
	C641.843994,132.036469 641.843994,123.290497 641.843994,114.275818 
	C644.636841,114.275818 647.043213,114.275818 649.849243,114.275818 
	C649.849243,122.950127 649.849243,131.702148 649.849243,140.851166 
	C657.639526,140.851166 665.049927,140.851166 672.727600,140.851166 
	C672.727600,143.311005 672.727600,145.382782 672.727600,147.850983 
	C665.387329,147.850983 657.966553,147.850983 650.000000,147.850983 
	C650.000000,151.319519 650.000000,154.426605 650.000000,158.028381 
z"/>
<path fill="#FFFFFF" opacity="1.000000" stroke="none" 
	d="
M1047.000000,179.997421 
	C1047.000000,185.474121 1047.000000,190.451553 1047.000000,195.713547 
	C1044.383179,195.713547 1041.976196,195.713547 1039.172363,195.713547 
	C1039.172363,180.069260 1039.172363,164.321457 1039.172363,148.172638 
	C1033.725830,148.172638 1028.643677,148.172638 1023.285400,148.172638 
	C1023.285400,145.716919 1023.285400,143.646210 1023.285400,141.172913 
	C1028.254272,141.172913 1033.341431,141.172913 1038.826416,141.172913 
	C1038.826416,132.055389 1038.826416,123.310562 1038.826416,114.285736 
	C1041.617920,114.285736 1044.022705,114.285736 1046.830688,114.285736 
	C1046.830688,122.929802 1046.830688,131.681808 1046.830688,140.832306 
	C1054.617432,140.832306 1062.028442,140.832306 1069.716797,140.832306 
	C1069.716797,143.297516 1069.716797,145.367477 1069.716797,147.831360 
	C1062.410278,147.831360 1054.988525,147.831360 1047.000000,147.831360 
	C1047.000000,158.639206 1047.000000,169.068680 1047.000000,179.997421 
z"/>
<path fill="#FDCB58" opacity="1.000000" stroke="none" 
	d="
M1177.003174,102.956764 
	C1177.536133,99.120575 1178.464722,97.848976 1182.819458,98.722206 
	C1194.099976,100.984276 1200.673706,108.635780 1206.600830,117.289688 
	C1207.928345,119.228035 1208.269287,122.233681 1205.743164,123.550339 
	C1203.640259,124.646500 1201.485352,124.446960 1199.655029,121.529503 
	C1194.998657,114.107117 1188.723999,108.366898 1179.912354,105.946571 
	C1178.791626,105.638733 1177.967163,104.252190 1177.003174,102.956764 
z"/>
<path fill="#FDCB58" opacity="1.000000" stroke="none" 
	d="
M1111.222900,98.672226 
	C1115.116943,102.608353 1114.850464,104.494331 1110.226562,105.981712 
	C1101.687500,108.728477 1094.976562,113.501129 1090.571289,121.577316 
	C1089.794800,123.000778 1086.721802,123.171524 1084.709351,123.920799 
	C1084.180542,122.180099 1082.880981,120.252724 1083.250000,118.729424 
	C1085.415649,109.786011 1101.149780,98.429947 1111.222900,98.672226 
z"/>
<path fill="#FDCB58" opacity="1.000000" stroke="none" 
	d="
M1187.036133,92.059013 
	C1188.387817,87.999916 1190.562256,87.345787 1194.344604,88.615608 
	C1200.083374,90.542267 1204.885498,93.470634 1207.964600,98.671143 
	C1208.667847,99.858757 1208.681519,102.355209 1207.885742,103.289810 
	C1206.995850,104.334869 1203.787964,105.113792 1203.369995,104.589249 
	C1199.139038,99.279099 1193.178955,96.729675 1187.414429,93.810074 
	C1187.125488,93.663666 1187.139282,92.919365 1187.036133,92.059013 
z"/>
<path fill="#FDCB58" opacity="1.000000" stroke="none" 
	d="
M1098.931152,95.971008 
	C1095.129883,98.391731 1091.851196,101.026459 1088.237427,103.068100 
	C1086.647339,103.966415 1083.855103,104.521370 1082.521606,103.717613 
	C1079.753174,102.048851 1080.852295,99.792480 1082.810669,97.609032 
	C1086.626709,93.354515 1090.603149,89.840973 1096.558716,88.561043 
	C1099.532959,87.921822 1101.545166,88.053268 1102.727905,90.554146 
	C1104.214233,93.696915 1101.520752,94.803383 1098.931152,95.971008 
z"/>
<path fill="#000000" opacity="1.000000" stroke="none" 
	d="
M809.000000,157.038849 
	C809.000000,153.900299 809.000000,151.256546 809.000000,148.307007 
	C820.565979,148.307007 831.962158,148.307007 843.940369,148.307007 
	C832.489868,160.271988 821.188232,172.081451 809.000000,184.817307 
	C809.000000,174.929611 809.000000,166.231628 809.000000,157.038849 
z"/>
<path fill="#000000" opacity="1.000000" stroke="none" 
	d="
M700.743042,183.248505 
	C695.074463,176.400620 692.047241,169.331024 695.708130,160.770004 
	C698.910400,153.281647 706.434509,148.090744 714.248962,147.987854 
	C723.528503,147.865662 730.072144,152.134872 734.050964,160.355667 
	C740.275574,173.216309 729.250854,189.379333 715.664551,189.826553 
	C710.240295,190.005096 704.932129,187.849487 700.743042,183.248505 
z"/>
<path fill="#000000" opacity="1.000000" stroke="none" 
	d="
M967.327881,180.254059 
	C964.286072,182.059067 961.553894,183.643219 958.821716,185.227371 
	C958.608643,185.019119 958.395630,184.810852 958.182556,184.602600 
	C964.808838,173.418686 971.435120,162.234787 978.223022,150.778107 
	C981.647522,156.904083 984.817810,162.575241 988.339355,168.874786 
	C981.417786,172.605560 974.527649,176.319382 967.327881,180.254059 
z"/>
</svg>